<svg xmlns="http://www.w3.org/2000/svg">

    <symbol id="play" width="15" height="16" viewBox="0 0 15 16" fill="none" xmlns="http://www.w3.org/2000/svg">
        <path d="M3.24267 0.655715C2.96389 0.496474 2.64819 0.413232 2.32714 0.414317C2.00609 0.415402 1.69096 0.500775 1.41326 0.661897C1.13557 0.823018 0.905057 1.05424 0.744785 1.33242C0.584513 1.6106 0.500104 1.926 0.5 2.24705V13.7549C0.500104 14.0759 0.584513 14.3913 0.744785 14.6695C0.905057 14.9477 1.13557 15.1789 1.41326 15.34C1.69096 15.5012 2.00609 15.5865 2.32714 15.5876C2.64819 15.5887 2.96389 15.5055 3.24267 15.3462L13.3113 9.59138C13.5917 9.43097 13.8248 9.19931 13.9869 8.91986C14.1489 8.64041 14.2343 8.3231 14.2343 8.00005C14.2343 7.677 14.1489 7.35969 13.9869 7.08024C13.8248 6.80079 13.5917 6.56913 13.3113 6.40872L3.24267 0.655715Z" fill="#1A3E3E"/>
    </symbol>

    <symbol id="star" width="18" height="17" viewBox="0 0 18 17" fill="none" xmlns="http://www.w3.org/2000/svg">
        <path d="M8.99995 14.07L13.15 16.58C13.91 17.04 14.8399 16.36 14.6399 15.5L13.54 10.78L17.2099 7.60003C17.8799 7.02003 17.5199 5.92003 16.6399 5.85003L11.81 5.44003L9.91995 0.980028C9.57995 0.170028 8.41995 0.170028 8.07995 0.980028L6.18995 5.43003L1.35995 5.84003C0.479951 5.91003 0.119951 7.01003 0.789951 7.59003L4.45995 10.77L3.35995 15.49C3.15995 16.35 4.08995 17.03 4.84995 16.57L8.99995 14.07Z" fill="#F2BE22"/>
    </symbol>

    <symbol id="telegram" width="26" height="26" viewBox="0 0 26 26" xmlns="http://www.w3.org/2000/svg">
        <path d="M 13 0.617188 C 6.164062 0.617188 0.617188 6.164062 0.617188 13 C 0.617188 19.835938 6.164062 25.382812 13 25.382812 C 19.835938 25.382812 25.382812 19.835938 25.382812 13 C 25.382812 6.164062 19.835938 0.617188 13 0.617188 Z M 18.746094 9.039062 C 18.558594 10.996094 17.753906 15.75 17.347656 17.941406 C 17.171875 18.867188 16.824219 19.179688 16.503906 19.214844 C 15.785156 19.277344 15.242188 18.746094 14.546875 18.285156 C 13.457031 17.570312 12.839844 17.121094 11.785156 16.429688 C 10.5625 15.625 11.351562 15.179688 12.058594 14.460938 C 12.246094 14.273438 15.414062 11.390625 15.476562 11.128906 C 15.484375 11.089844 15.484375 11.050781 15.472656 11.011719 C 15.460938 10.972656 15.441406 10.9375 15.414062 10.90625 C 15.339844 10.847656 15.242188 10.871094 15.152344 10.882812 C 15.042969 10.90625 13.308594 12.058594 9.929688 14.335938 C 9.433594 14.671875 8.988281 14.84375 8.59375 14.832031 C 8.148438 14.820312 7.304688 14.585938 6.671875 14.375 C 5.894531 14.125 5.285156 13.992188 5.335938 13.558594 C 5.359375 13.335938 5.671875 13.113281 6.253906 12.875 C 9.867188 11.304688 12.269531 10.265625 13.46875 9.769531 C 16.914062 8.332031 17.617188 8.085938 18.089844 8.085938 C 18.1875 8.085938 18.421875 8.109375 18.570312 8.234375 C 18.695312 8.332031 18.730469 8.46875 18.746094 8.566406 C 18.730469 8.640625 18.757812 8.863281 18.746094 9.039062 Z M 18.746094 9.039062 "/>
    </symbol>

    <symbol id="vk" width="26" height="26" viewBox="0 0 26 26" xmlns="http://www.w3.org/2000/svg">
        <path d="M 12.863281 0 C 5.761719 0 0 5.757812 0 12.863281 C 0 19.96875 5.761719 25.730469 12.863281 25.730469 C 19.96875 25.730469 25.730469 19.96875 25.730469 12.863281 C 25.730469 5.757812 19.96875 0 12.863281 0 Z M 17.8125 14.515625 C 17.8125 14.515625 18.949219 15.636719 19.230469 16.160156 C 19.238281 16.167969 19.242188 16.179688 19.246094 16.1875 C 19.359375 16.378906 19.386719 16.527344 19.328125 16.636719 C 19.234375 16.824219 18.914062 16.914062 18.804688 16.921875 L 16.792969 16.921875 C 16.65625 16.921875 16.363281 16.886719 16.007812 16.640625 C 15.738281 16.449219 15.46875 16.140625 15.207031 15.835938 C 14.816406 15.382812 14.480469 14.992188 14.140625 14.992188 C 14.097656 14.992188 14.054688 14.996094 14.011719 15.011719 C 13.753906 15.09375 13.425781 15.460938 13.425781 16.4375 C 13.425781 16.746094 13.183594 16.921875 13.015625 16.921875 L 12.09375 16.921875 C 11.78125 16.921875 10.144531 16.808594 8.699219 15.285156 C 6.925781 13.414062 5.332031 9.664062 5.320312 9.628906 C 5.21875 9.386719 5.425781 9.257812 5.652344 9.257812 L 7.683594 9.257812 C 7.953125 9.257812 8.042969 9.421875 8.105469 9.566406 C 8.175781 9.738281 8.441406 10.414062 8.878906 11.175781 C 9.582031 12.417969 10.015625 12.921875 10.363281 12.921875 C 10.429688 12.921875 10.492188 12.902344 10.550781 12.871094 C 11.003906 12.621094 10.917969 11.007812 10.898438 10.671875 C 10.898438 10.609375 10.898438 9.949219 10.664062 9.632812 C 10.5 9.402344 10.214844 9.316406 10.042969 9.285156 C 10.113281 9.1875 10.207031 9.109375 10.3125 9.058594 C 10.621094 8.902344 11.183594 8.878906 11.738281 8.878906 L 12.046875 8.878906 C 12.652344 8.886719 12.804688 8.925781 13.023438 8.980469 C 13.46875 9.085938 13.476562 9.371094 13.4375 10.347656 C 13.425781 10.628906 13.414062 10.941406 13.414062 11.308594 C 13.414062 11.390625 13.410156 11.476562 13.410156 11.566406 C 13.394531 12.066406 13.378906 12.628906 13.730469 12.859375 C 13.777344 12.890625 13.828125 12.90625 13.882812 12.90625 C 14.003906 12.90625 14.371094 12.90625 15.367188 11.199219 C 15.675781 10.648438 15.941406 10.078125 16.164062 9.492188 C 16.183594 9.457031 16.242188 9.351562 16.3125 9.308594 C 16.363281 9.28125 16.421875 9.269531 16.480469 9.269531 L 18.867188 9.269531 C 19.125 9.269531 19.304688 9.308594 19.339844 9.410156 C 19.398438 9.566406 19.328125 10.054688 18.238281 11.53125 L 17.75 12.171875 C 16.761719 13.464844 16.761719 13.53125 17.8125 14.515625 Z M 17.8125 14.515625 "/>
    </symbol>

    <symbol id="pinterest" width="26" height="26" viewBox="0 0 26 26" xmlns="http://www.w3.org/2000/svg">
        <path d="M 9.335938 24.8125 C 10.523438 25.171875 11.726562 25.382812 13 25.382812 C 16.285156 25.382812 19.433594 24.078125 21.753906 21.753906 C 24.078125 19.433594 25.382812 16.285156 25.382812 13 C 25.382812 11.375 25.0625 9.765625 24.4375 8.261719 C 23.816406 6.761719 22.90625 5.394531 21.753906 4.246094 C 20.605469 3.097656 19.238281 2.183594 17.738281 1.5625 C 16.234375 0.9375 14.625 0.617188 13 0.617188 C 11.375 0.617188 9.765625 0.9375 8.261719 1.5625 C 6.761719 2.183594 5.394531 3.097656 4.246094 4.246094 C 1.921875 6.566406 0.617188 9.714844 0.617188 13 C 0.617188 18.261719 3.925781 22.78125 8.59375 24.5625 C 8.480469 23.597656 8.371094 22 8.59375 20.898438 L 10.015625 14.78125 C 10.015625 14.78125 9.65625 14.066406 9.65625 12.925781 C 9.65625 11.21875 10.722656 9.941406 11.933594 9.941406 C 13 9.941406 13.496094 10.722656 13.496094 11.726562 C 13.496094 12.789062 12.789062 14.3125 12.429688 15.773438 C 12.21875 16.988281 13.074219 18.050781 14.3125 18.050781 C 16.515625 18.050781 18.226562 15.699219 18.226562 12.382812 C 18.226562 9.410156 16.09375 7.378906 13.039062 7.378906 C 9.546875 7.378906 7.492188 9.980469 7.492188 12.714844 C 7.492188 13.78125 7.835938 14.855469 8.40625 15.5625 C 8.519531 15.636719 8.519531 15.734375 8.480469 15.921875 L 8.121094 17.273438 C 8.121094 17.480469 7.984375 17.554688 7.773438 17.40625 C 6.191406 16.714844 5.273438 14.460938 5.273438 12.640625 C 5.273438 8.730469 8.046875 5.175781 13.394531 5.175781 C 17.65625 5.175781 20.972656 8.234375 20.972656 12.292969 C 20.972656 16.554688 18.335938 19.96875 14.558594 19.96875 C 13.359375 19.96875 12.183594 19.328125 11.761719 18.570312 L 10.933594 21.503906 C 10.648438 22.570312 9.867188 23.996094 9.335938 24.847656 Z M 9.335938 24.8125 "/>
    </symbol>

    <symbol id="skype" width="26" height="26" viewBox="0 0 26 26" xmlns="http://www.w3.org/2000/svg">
        <path d="M 21.667969 4.332031 C 24.65625 7.28125 25.785156 11.398438 25.074219 15.238281 C 25.667969 16.277344 26 17.492188 26 18.777344 C 26 20.691406 25.238281 22.53125 23.882812 23.882812 C 22.53125 25.238281 20.691406 26 18.777344 26 C 17.492188 26 16.277344 25.667969 15.238281 25.074219 C 11.398438 25.785156 7.28125 24.65625 4.332031 21.667969 C 1.34375 18.71875 0.214844 14.601562 0.925781 10.761719 C 0.332031 9.722656 0 8.507812 0 7.222656 C 0 5.308594 0.761719 3.46875 2.117188 2.117188 C 3.46875 0.761719 5.308594 0 7.222656 0 C 8.507812 0 9.722656 0.332031 10.761719 0.925781 C 14.601562 0.214844 18.71875 1.34375 21.667969 4.332031 Z M 13.058594 20.453125 C 17.203125 20.453125 19.269531 18.460938 19.269531 15.773438 C 19.269531 14.054688 18.460938 12.21875 15.324219 11.511719 L 12.449219 10.875 C 11.351562 10.632812 10.109375 10.300781 10.109375 9.273438 C 10.109375 8.234375 10.976562 7.511719 12.566406 7.511719 C 15.789062 7.511719 15.484375 9.722656 17.085938 9.722656 C 17.925781 9.722656 18.648438 9.230469 18.648438 8.378906 C 18.648438 6.398438 15.484375 4.910156 12.796875 4.910156 C 9.894531 4.910156 6.789062 6.152344 6.789062 9.445312 C 6.789062 11.035156 7.351562 12.726562 10.472656 13.503906 L 14.359375 14.488281 C 15.527344 14.777344 15.816406 15.425781 15.816406 16.035156 C 15.816406 17.015625 14.835938 17.984375 13.058594 17.984375 C 9.578125 17.984375 10.054688 15.3125 8.191406 15.3125 C 7.351562 15.3125 6.746094 15.890625 6.746094 16.710938 C 6.746094 18.316406 8.667969 20.453125 13.058594 20.453125 Z M 13.058594 20.453125 "/>
    </symbol>

    <symbol id="arrow" width="6" height="10" viewBox="0 0 6 10" xmlns="http://www.w3.org/2000/svg">
        <path d="M5.7154 4.6098L1.26527 0.159755C1.16235 0.0567475 1.02495 0 0.878448 0C0.731945 0 0.594548 0.0567475 0.491622 0.159755L0.163901 0.487394C-0.0493491 0.700889 -0.0493491 1.04788 0.163901 1.26105L3.90078 4.99793L0.159755 8.73895C0.0568288 8.84196 0 8.97928 0 9.1257C0 9.27228 0.0568288 9.4096 0.159755 9.51269L0.487476 9.84024C0.590483 9.94325 0.727799 10 0.874302 10C1.0208 10 1.1582 9.94325 1.26113 9.84024L5.7154 5.38613C5.81857 5.2828 5.87524 5.14484 5.87491 4.99817C5.87524 4.85094 5.81857 4.71305 5.7154 4.6098Z"/>
    </symbol>

</svg>